<?xml version="1.0" standalone="no"?><!DOCTYPE svg PUBLIC "-//W3C//DTD SVG 1.1//EN" "http://www.w3.org/Graphics/SVG/1.1/DTD/svg11.dtd"><svg t="1612843722712" class="icon" viewBox="0 0 1024 1024" version="1.1" xmlns="http://www.w3.org/2000/svg" p-id="3381" xmlns:xlink="http://www.w3.org/1999/xlink" width="200" height="200"><defs><style type="text/css"></style></defs><path d="M812.992 145.024h-103.04v-18.048a48 48 0 0 0-48-48H362.048a48 48 0 0 0-48 48v18.048h-103.04c-37.44 0-67.84 30.272-67.968 67.776v660.48c0.128 37.44 30.528 67.712 68.032 67.712h601.984c37.504 0 67.84-30.272 68.032-67.776V212.736a67.968 67.968 0 0 0-68.032-67.712z m-435.008-2.048h268.032v76.032H377.984V142.976z m431.04 726.016H214.976V217.024h99.008v17.92c0 26.56 21.504 48 48 48h300.032a48 48 0 0 0 48-48v-17.92h99.008v651.968z m-467.008-423.04h339.968c5.376 0 8 2.688 8 8.064v48c0 5.312-2.624 8-8 8H342.016c-5.376 0-8-2.688-8-8v-48c0-5.376 2.624-8 8-8z m0 178.048h339.968c5.376 0 8 2.688 8 8v48c0 5.312-2.624 8-8 8H342.016c-5.376 0-8-2.688-8-8v-48c0-5.312 2.624-8 8-8z" p-id="3382"></path></svg>